<?xml version="1.0" encoding="utf-8"?>
<!-- Generator: Adobe Illustrator 21.0.2, SVG Export Plug-In . SVG Version: 6.00 Build 0)  -->
<svg version="1.1" id="Camada_1" xmlns="http://www.w3.org/2000/svg" xmlns:xlink="http://www.w3.org/1999/xlink" x="0px" y="0px"
	 viewBox="0 0 299.2 256.7" style="enable-background:new 0 0 299.2 256.7;" xml:space="preserve">
<style type="text/css">
	.st0{fill:#EF8E00;}
	.st1{fill:#EF8E00;stroke:#EF8E00;stroke-width:15;stroke-linecap:round;stroke-linejoin:round;stroke-miterlimit:10;}
	.st2{fill:#F5B043;}
	.st3{fill:#FFFFFF;stroke:#000000;stroke-width:6;stroke-linecap:round;stroke-linejoin:round;stroke-miterlimit:10;}
	.st4{fill:#FFFFFF;stroke:#000000;stroke-width:6;stroke-miterlimit:10;}
	.st5{fill:#67C1DC;}
	.st6{fill:none;stroke:#000000;stroke-width:6;stroke-linecap:round;stroke-linejoin:round;stroke-miterlimit:10;}
	.st7{fill:#EF8E00;stroke:#F5B043;stroke-width:2;stroke-miterlimit:10;}
	.st8{fill:#FFFFFF;stroke:#F5B043;stroke-width:7.5379;stroke-miterlimit:10;}
	.st9{fill:#FFFFFF;}
	.st10{fill:none;stroke:#FFFFFF;stroke-miterlimit:10;}
</style>
<g>
	<g>
		<path class="st9" d="M73.6,256.7c-16.3,0-29.5-13.2-29.5-29.5s13.2-29.5,29.5-29.5s29.5,13.2,29.5,29.5S89.9,256.7,73.6,256.7z"/>
	</g>
	<g>
		<path class="st9" d="M225.6,256.7c-16.3,0-29.5-13.2-29.5-29.5s13.2-29.5,29.5-29.5s29.5,13.2,29.5,29.5S241.9,256.7,225.6,256.7z
			"/>
	</g>
	<g>
		<path class="st9" d="M296.8,104.9h-34.2c-10.7,0-19.5-8.7-19.5-19.5V24.6C224.8,10.6,189.7,0,189.7,0H12c0,0-4.6,0-8.2,3.8
			C0,7.7,0,12.6,0,12.6v55.6c0,0,0.4,3.9,4,7.5c2.8,2.8,8.5,3,8.5,3h114.8V53.5l67.8,55.8l-67.8,55.8V140H13.2c0,0-5-0.2-9.2,4
			c-3.7,3.7-4,7.8-4,7.8v62.3c0,0,0.1,4.6,3.8,8.3c3.8,3.8,7.8,3.8,7.8,3.8h26.1h-1c0-20.1,17.3-36.5,37.5-36.5s36.2,16.3,36.2,36.5
			h78.3c0-20.1,16.1-36.5,36.2-36.5s37.5,16.3,37.5,36.5h-1h26.1c0,0,3.8,0,7.8-3.8c3.8-3.7,3.8-8.3,3.8-8.3v-82.9
			C299.1,131.2,300.2,120.7,296.8,104.9z"/>
		<path class="st9" d="M262.6,96.2h31.9c-5.6-18.6-17.5-42-42.6-64.2v53.6C251.9,91.4,256.7,96.2,262.6,96.2z"/>
	</g>
</g>
</svg>
