<?xml version="1.0" encoding="utf-8"?>
<!-- Generator: Adobe Illustrator 21.0.2, SVG Export Plug-In . SVG Version: 6.00 Build 0)  -->
<svg version="1.1" id="Camada_1" xmlns="http://www.w3.org/2000/svg" xmlns:xlink="http://www.w3.org/1999/xlink" x="0px" y="0px"
	 viewBox="0 0 512 512" style="enable-background:new 0 0 512 512;" xml:space="preserve">
<style type="text/css">
	.st0{fill:#002F51;}
	.st1{fill:#FFFFFF;}
</style>
<g>
	<path class="st0" d="M500,512H12c-6.6,0-12-5.4-12-12V12C0,5.4,5.4,0,12,0h488c6.6,0,12,5.4,12,12v488C512,506.6,506.6,512,500,512
		z"/>
	<g>
		<g>
			<path class="st1" d="M154.4,427.6c-21.8,0-39.4-17.6-39.4-39.4c0-21.8,17.6-39.4,39.4-39.4s39.4,17.6,39.4,39.4
				C193.8,409.9,176.2,427.6,154.4,427.6z"/>
		</g>
		<g>
			<path class="st1" d="M357.6,427.6c-21.8,0-39.4-17.6-39.4-39.4c0-21.8,17.6-39.4,39.4-39.4s39.4,17.6,39.4,39.4
				C397,409.9,379.4,427.6,357.6,427.6z"/>
		</g>
		<g>
			<path class="st1" d="M452.7,224.7H407c-14.3,0-26.1-11.6-26.1-26.1v-81.3c-24.5-18.7-71.4-32.9-71.4-32.9H72.1c0,0-6.1,0-11,5.1
				C56,94.7,56,101.3,56,101.3v74.3c0,0,0.5,5.2,5.3,10c3.7,3.7,11.4,4,11.4,4h153.4V156l90.6,74.6l-90.6,74.6v-33.5H73.7
				c0,0-6.7-0.3-12.3,5.3c-4.9,4.9-5.3,10.4-5.3,10.4v83.3c0,0,0.1,6.1,5.1,11.1c5.1,5.1,10.4,5.1,10.4,5.1h34.9h-1.3
				c0-26.9,23.1-48.8,50.1-48.8s48.4,21.8,48.4,48.8h104.7c0-26.9,21.5-48.8,48.4-48.8s50.1,21.8,50.1,48.8h-1.3h34.9
				c0,0,5.1,0,10.4-5.1c5.1-4.9,5.1-11.1,5.1-11.1V259.8C455.8,259.8,457.3,245.8,452.7,224.7z"/>
			<path class="st1" d="M407,213h42.6c-7.5-24.9-23.4-56.1-56.9-85.8v71.6C392.7,206.6,399.1,213,407,213z"/>
		</g>
	</g>
</g>
</svg>
